<?xml version="1.0"?>
<svg viewBox="0 0 96 96" width="96" height="96"
    xmlns="http://www.w3.org/2000/svg"
    xmlns:svg="http://www.w3.org/2000/svg">
  <defs>
    <linearGradient id="g1" gradientTransform="rotate(50)">
      <stop offset="0" style="stop-color: white; stop-opacity: 0;" />
      <stop offset="0.6" style="stop-color: white; stop-opacity: 0.4;" />
      <stop offset="1" style="stop-color: white; stop-opacity: 0.95;" />
    </linearGradient>
  </defs>
  <path style="fill: #c0d8f4;"
    d="m 10.29,16.77 c -1.74,0 -3.14,1.47-3.14,3.3 v 49.46 c 0,5.48 4.2,9.9 9.42,9.9 h 62.86 c 5.22,0 9.43,-4.42 9.43,-9.9 V 43.13 c 0,-6.6 -2.01,-15.88 -5.25,-19.03 L 43.99,24.06 38.57,16.77 H 16.57 Z" />
  <path style="fill: #0a84ff;"
    d="m 10.29,13.43 c -3.43,0 -6.29,2.86 -6.29,6.29 v 50.29 c 0,6.91 5.66,12.57 12.57,12.57 h 62.86 c 6.91,0 12.57,-5.66 12.57,-12.57 V 32.29 c 0,-6.91 -5.66,-12.57 -12.57,-12.57 H 44.86 a 3.14,3.14 0 0 0 -0.37,0.08 L 41.19,14.82 A 3.14,3.14 0 0 0 38.57,13.43 Z m 0,6.29 H 36.89 L 48.53,37.17 a 3.14,3.14 0 0 0 2.61,1.4 h 28.29 c 1.37,0 3.06,0.57 4.26,1.6 1.19,1.04 2.02,2.41 2.02,4.69 v 25.14 c 0,3.54 -2.75,6.29 -6.29,6.29 H 16.57 c -3.54,0 -6.29,-2.75 -6.29,-6.29 V 32.29 H 26 A 3.14,3.14 0 0 0 29.14,29.14 3.14,3.14 0 0 0 26,26 H 10.29 Z m 38.36,6.29 h 30.79 c 3.54,0 6.29,2.75 6.29,6.29 v 1.66 A 12.85,12.85 0 0 0 79.43,32.29 H 52.83 Z" />
  <path style="mix-blend-mode: lighten; fill: url(#g1);"
    d="M 10.29,13.43 C 6.86,13.43 4,16.29 4,19.71 V 70 c 0,6.91 5.66,12.57 12.57,12.57 H 79.43 C 86.34,82.57 92,76.91 92,70 V 32.29 C 92,25.37 86.34,19.71 79.43,19.71 H 44.86 c -0.13,0.02 -0.25,0.04 -0.37,0.07 l -3.3,-4.96 c -0.58,-0.87 -1.56,-1.4 -2.61,-1.4 z" />
  <path style="fill: #4f526d" transform="matrix(1.87,0,0,1.87,213.28,21.48)"
    d="M -98.92,26.51 V 11.96 h 10.12 v 2.58 h -7.11 v 3.57 h 6.62 v 2.5 h -6.62 v 5.9 z m 16.41,0.23 q -1.45,0 -2.56,-0.55 -1.1,-0.55 -1.77,-1.49 Q -87.5,23.75 -87.63,22.56 h 2.8 q 0.17,0.85 0.77,1.36 0.62,0.51 1.57,0.51 1.04,0 1.71,-0.57 0.68,-0.57 1.02,-1.59 0.33,-1.03 0.33,-2.38 h -0.02 q -0.36,0.56 -0.88,0.93 -0.52,0.37 -1.16,0.57 -0.64,0.19 -1.41,0.19 -1.4,0 -2.5,-0.63 -1.1,-0.63 -1.74,-1.73 -0.63,-1.1 -0.63,-2.5 0,-1.48 0.68,-2.61 0.69,-1.12 1.9,-1.75 1.22,-0.63 2.79,-0.63 1.37,0 2.42,0.48 1.06,0.48 1.8,1.4 0.74,0.92 1.12,2.25 0.39,1.32 0.39,3.02 0,1.8 -0.38,3.25 -0.38,1.45 -1.12,2.49 -0.74,1.04 -1.85,1.59 -1.09,0.55 -2.52,0.55 z m 0.13,-7.45 q 0.55,0 1.01,-0.2 0.47,-0.2 0.81,-0.55 0.35,-0.35 0.55,-0.82 0.2,-0.48 0.2,-1.04 0,-0.74 -0.33,-1.33 -0.33,-0.6 -0.91,-0.94 -0.58,-0.34 -1.29,-0.34 -0.72,0 -1.3,0.34 -0.58,0.34 -0.92,0.94 -0.33,0.59 -0.33,1.34 0,0.74 0.33,1.33 0.33,0.59 0.9,0.93 0.58,0.33 1.29,0.33 z" />
</svg>
